<svg width="139" height="24" viewBox="0 0 139 24" fill="none" xmlns="http://www.w3.org/2000/svg">
<path d="M57.635 19.016C54.643 19.016 52.9281 17.3193 52.5632 15.2577L55.1721 14.4915C55.3181 15.5314 56.2303 16.3706 57.635 16.3706C59.0398 16.3706 59.8243 15.8233 59.8243 15.0388C59.8243 14.3455 59.2952 13.9989 58.5655 13.8164L56.5769 13.3239C54.7707 12.886 53.0741 11.8461 53.0741 9.51088C53.0741 7.57702 54.7525 5.77087 57.6898 5.77087C60.1527 5.77087 62.0136 7.01146 62.3967 9.12775L59.7513 9.83927C59.6419 9.12775 59.0581 8.32502 57.6898 8.32502C56.5039 8.32502 55.9019 8.90883 55.9019 9.51088C55.9019 10.1494 56.3945 10.4596 57.2519 10.6785L59.2223 11.1893C61.5757 11.7914 62.6521 13.0684 62.6521 15.0388C62.6521 17.1368 60.9007 19.016 57.635 19.016Z" fill="white"/>
<path d="M41.5876 18.7788V6.00806H44.379V11.1346H44.7621L48.8852 6.00806H51.9867V6.37294L48.1372 11.0616L52.1874 18.4139V18.7788H49.1041L46.2216 13.3968L44.379 15.6408V18.7788H41.5876Z" fill="white"/>
<path d="M30.5415 18.7788V6.00806H35.5768C38.1675 6.00806 39.9371 7.88718 39.9371 10.2406C39.9371 12.5029 38.1675 14.4915 35.5768 14.4915H33.3511V18.7788H30.5415ZM33.3511 11.8644H35.4126C36.3613 11.8644 37.0911 11.1893 37.0911 10.2406C37.0911 9.29196 36.3613 8.61694 35.4126 8.61694H33.3511V11.8644Z" fill="white"/>
<line x1="69.205" y1="2.87646" x2="69.205" y2="21.9103" stroke="white" stroke-width="0.570122"/>
<path d="M126.242 15.7046C125.102 15.7046 124.163 15.1938 123.862 14.0718L124.546 13.862C124.756 14.6282 125.348 15.0296 126.242 15.0296C127.182 15.0296 127.748 14.5097 127.748 13.8529C127.748 13.2235 127.31 12.8586 126.626 12.7035L125.704 12.4937C124.956 12.3204 124.135 11.846 124.135 10.7879C124.135 9.82097 124.947 9.08209 126.215 9.08209C127.337 9.08209 128.131 9.6659 128.368 10.5507L127.702 10.7605C127.529 10.1402 126.936 9.748 126.215 9.748C125.33 9.748 124.856 10.2497 124.856 10.7879C124.856 11.4173 125.358 11.6818 125.878 11.8004L126.817 12.0194C127.702 12.2292 128.505 12.7765 128.505 13.8529C128.505 14.838 127.665 15.7046 126.242 15.7046Z" fill="white"/>
<path d="M117.294 15.5861V9.20068H118.671L121.499 14.984H121.682V9.20068H122.402V15.5861H120.997L118.206 9.80273H118.024V15.5861H117.294Z" fill="white"/>
<path d="M112.728 15.7046C110.876 15.7046 109.499 14.2907 109.499 12.3934C109.499 10.5142 110.885 9.08209 112.737 9.08209C114.598 9.08209 115.975 10.5325 115.975 12.3934C115.975 14.2725 114.589 15.7046 112.728 15.7046ZM110.256 12.3934C110.256 13.9167 111.314 15.0205 112.737 15.0205C114.16 15.0205 115.218 13.9167 115.218 12.3934C115.218 10.8882 114.16 9.76624 112.737 9.76624C111.314 9.76624 110.256 10.8882 110.256 12.3934Z" fill="white"/>
<path d="M105.361 15.5861V14.9201H106.583V9.86659H105.361V9.20068H108.535V9.86659H107.313V14.9201H108.535V15.5861H105.361Z" fill="white"/>
<path d="M101.519 15.5861V9.88483H99.439V9.20068H104.356V9.88483H102.258V15.5861H101.519Z" fill="white"/>
<path d="M95.9601 15.7046C94.4915 15.7046 93.5337 14.7286 93.5337 13.3694V9.20068H94.2726V13.3603C94.2726 14.4276 94.9476 15.0296 95.9601 15.0296C96.9727 15.0296 97.6477 14.4276 97.6477 13.3603V9.20068H98.3866V13.3694C98.3866 14.7286 97.4288 15.7046 95.9601 15.7046Z" fill="white"/>
<path d="M88.6719 15.5861V9.20068H89.4108V14.9019H92.4392V15.5861H88.6719Z" fill="white"/>
<path d="M84.1059 15.7046C82.2541 15.7046 80.8767 14.2907 80.8767 12.3934C80.8767 10.5142 82.2632 9.08209 84.115 9.08209C85.9759 9.08209 87.3533 10.5325 87.3533 12.3934C87.3533 14.2725 85.9668 15.7046 84.1059 15.7046ZM81.6338 12.3934C81.6338 13.9167 82.692 15.0205 84.115 15.0205C85.538 15.0205 86.5962 13.9167 86.5962 12.3934C86.5962 10.8882 85.538 9.76624 84.115 9.76624C82.692 9.76624 81.6338 10.8882 81.6338 12.3934Z" fill="white"/>
<path d="M77.5683 15.7046C76.4281 15.7046 75.4885 15.1938 75.1875 14.0718L75.8716 13.862C76.0815 14.6282 76.6744 15.0296 77.5683 15.0296C78.5079 15.0296 79.0735 14.5097 79.0735 13.8529C79.0735 13.2235 78.6356 12.8586 77.9515 12.7035L77.0301 12.4937C76.2821 12.3204 75.4612 11.846 75.4612 10.7879C75.4612 9.82097 76.273 9.08209 77.541 9.08209C78.663 9.08209 79.4566 9.6659 79.6937 10.5507L79.0278 10.7605C78.8545 10.1402 78.2616 9.748 77.541 9.748C76.6561 9.748 76.1818 10.2497 76.1818 10.7879C76.1818 11.4173 76.6835 11.6818 77.2035 11.8004L78.143 12.0194C79.0278 12.2292 79.8306 12.7765 79.8306 13.8529C79.8306 14.838 78.9914 15.7046 77.5683 15.7046Z" fill="white"/>
<line x1="135.058" y1="2.87646" x2="135.058" y2="21.9103" stroke="white" stroke-width="0.570122"/>
<line x1="21.1399" y1="0.526123" x2="21.1399" y2="23.0173" stroke="white" stroke-width="4.47697"/>
<rect x="0.642334" y="0.25415" width="22.7329" height="22.7329" fill="white"/>
</svg>
