<svg width="140" height="23" viewBox="0 0 140 23" fill="none" xmlns="http://www.w3.org/2000/svg">
<path d="M31.2675 18.1392V5.36848H36.3028C38.8934 5.36848 40.6631 7.24761 40.6631 9.60107C40.6631 11.8633 38.8934 13.8519 36.3028 13.8519H34.077V18.1392H31.2675ZM34.077 11.2248H36.1386C37.0873 11.2248 37.817 10.5498 37.817 9.60107C37.817 8.65239 37.0873 7.97736 36.1386 7.97736H34.077V11.2248ZM42.3136 18.1392V5.36848H45.1049V10.495H45.488L49.6111 5.36848H52.7126V5.73336L48.8631 10.422L52.9133 17.7743V18.1392H49.8301L46.9475 12.7573L45.1049 15.0013V18.1392H42.3136ZM58.361 18.3764C55.369 18.3764 53.654 16.6797 53.2891 14.6181L55.898 13.8519C56.044 14.8918 56.9562 15.731 58.361 15.731C59.7657 15.731 60.5502 15.1837 60.5502 14.3992C60.5502 13.706 60.0212 13.3593 59.2914 13.1769L57.3028 12.6843C55.4967 12.2464 53.8 11.2065 53.8 8.87131C53.8 6.93746 55.4784 5.13131 58.4157 5.13131C60.8786 5.13131 62.7395 6.3719 63.1226 8.48819L60.4773 9.1997C60.3678 8.48819 59.784 7.68546 58.4157 7.68546C57.2298 7.68546 56.6278 8.26926 56.6278 8.87131C56.6278 9.50985 57.1204 9.82 57.9778 10.0389L59.9482 10.5498C62.3016 11.1518 63.378 12.4289 63.378 14.3992C63.378 16.4973 61.6266 18.3764 58.361 18.3764Z" fill="white"/>
<line x1="71.4521" y1="2.62231" x2="71.452" y2="21.6561" stroke="white" stroke-width="0.570122"/>
<path d="M80.4083 15.7578C79.2681 15.7578 78.3285 15.247 78.0275 14.125L78.7116 13.9152C78.9214 14.6814 79.5144 15.0828 80.4083 15.0828C81.3479 15.0828 81.9135 14.5628 81.9135 13.906C81.9135 13.2766 81.4756 12.9118 80.7915 12.7567L79.8701 12.5469C79.1221 12.3736 78.3012 11.8992 78.3012 10.8411C78.3012 9.87414 79.113 9.13527 80.381 9.13527C81.503 9.13527 82.2966 9.71907 82.5337 10.6039L81.8678 10.8137C81.6945 10.1934 81.1016 9.80117 80.381 9.80117C79.4961 9.80117 79.0218 10.3029 79.0218 10.8411C79.0218 11.4705 79.5235 11.735 80.0434 11.8536L80.983 12.0725C81.8678 12.2823 82.6706 12.8297 82.6706 13.906C82.6706 14.8912 81.8314 15.7578 80.4083 15.7578ZM86.9458 15.7578C85.094 15.7578 83.7166 14.3439 83.7166 12.4465C83.7166 10.5674 85.1031 9.13527 86.9549 9.13527C88.8158 9.13527 90.1932 10.5857 90.1932 12.4465C90.1932 14.3257 88.8067 15.7578 86.9458 15.7578ZM84.4737 12.4465C84.4737 13.9699 85.5319 15.0737 86.9549 15.0737C88.3779 15.0737 89.4361 13.9699 89.4361 12.4465C89.4361 10.9414 88.3779 9.81941 86.9549 9.81941C85.5319 9.81941 84.4737 10.9414 84.4737 12.4465ZM91.512 15.6392V9.25385H92.2508V14.9551H95.2793V15.6392H91.512ZM98.8001 15.7578C97.3315 15.7578 96.3737 14.7818 96.3737 13.4226V9.25385H97.1126V13.4135C97.1126 14.4807 97.7876 15.0828 98.8001 15.0828C99.8127 15.0828 100.488 14.4807 100.488 13.4135V9.25385H101.227V13.4226C101.227 14.7818 100.269 15.7578 98.8001 15.7578ZM104.359 15.6392V9.938H102.279V9.25385H107.196V9.938H105.098V15.6392H104.359ZM108.201 15.6392V14.9733H109.423V9.91975H108.201V9.25385H111.375V9.91975H110.153V14.9733H111.375V15.6392H108.201ZM115.568 15.7578C113.716 15.7578 112.339 14.3439 112.339 12.4465C112.339 10.5674 113.725 9.13527 115.577 9.13527C117.438 9.13527 118.815 10.5857 118.815 12.4465C118.815 14.3257 117.429 15.7578 115.568 15.7578ZM113.096 12.4465C113.096 13.9699 114.154 15.0737 115.577 15.0737C117 15.0737 118.058 13.9699 118.058 12.4465C118.058 10.9414 117 9.81941 115.577 9.81941C114.154 9.81941 113.096 10.9414 113.096 12.4465ZM120.134 15.6392V9.25385H121.511L124.339 15.0372H124.522V9.25385H125.242V15.6392H123.837L121.046 9.8559H120.864V15.6392H120.134ZM129.083 15.7578C127.942 15.7578 127.003 15.247 126.702 14.125L127.386 13.9152C127.596 14.6814 128.189 15.0828 129.083 15.0828C130.022 15.0828 130.588 14.5628 130.588 13.906C130.588 13.2766 130.15 12.9118 129.466 12.7567L128.544 12.5469C127.796 12.3736 126.975 11.8992 126.975 10.8411C126.975 9.87414 127.787 9.13527 129.055 9.13527C130.177 9.13527 130.971 9.71907 131.208 10.6039L130.542 10.8137C130.369 10.1934 129.776 9.80117 129.055 9.80117C128.17 9.80117 127.696 10.3029 127.696 10.8411C127.696 11.4705 128.198 11.735 128.718 11.8536L129.657 12.0725C130.542 12.2823 131.345 12.8297 131.345 13.906C131.345 14.8912 130.506 15.7578 129.083 15.7578Z" fill="white"/>
<line x1="138.987" y1="2.62231" x2="138.987" y2="21.6561" stroke="white" stroke-width="0.570122"/>
<line x1="20.4975" y1="0.271973" x2="20.4975" y2="22.7631" stroke="white" stroke-width="4.47697"/>
<rect width="22.7329" height="22.7329" fill="white"/>
</svg>
