<svg xmlns="http://www.w3.org/2000/svg" viewBox="0 0 186.32 44.83"><defs><style>.cls-1{fill:#ccc;}</style></defs><title>otten-logo</title><g id="Ebene_2" data-name="Ebene 2"><g id="Ebene_1-2" data-name="Ebene 1"><path class="cls-1" d="M20.75,44.83c12.2,0,20.62-9.2,20.62-22.51,0-7.11-1.89-12.33-5.87-16.51C31.65,1.83,27,0,20.82,0,8.29,0,0,8.94,0,22.45S8.35,44.83,20.75,44.83Zm.13-35c4.18,0,6.13,3.72,6.13,11.42a47.51,47.51,0,0,1-.52,7.24C25.84,33,24,35,20.69,35c-4.24,0-6.33-4-6.33-12.14C14.36,14.36,16.64,9.86,20.88,9.86Z"/><polygon class="cls-1" points="63.63 44.18 63.63 11.09 72.64 11.09 72.64 0.65 41.96 0.65 41.96 11.09 50.97 11.09 50.97 44.18 63.63 44.18"/><polygon class="cls-1" points="106.38 0.65 75.7 0.65 75.7 11.09 84.71 11.09 84.71 44.18 97.37 44.18 97.37 11.09 106.38 11.09 106.38 0.65"/><polygon class="cls-1" points="110.62 44.18 143.31 44.18 143.31 33.8 123.73 33.8 123.73 26.69 139.59 26.69 139.59 17.03 123.73 17.03 123.73 10.7 143.31 10.7 143.31 0.65 110.62 0.65 110.62 44.18"/><path class="cls-1" d="M175.42,13.57a65.83,65.83,0,0,0,1,11.42,69.18,69.18,0,0,0-4.63-8.42L161.72.65H149.12V44.18H160V23.1a27.79,27.79,0,0,0-1-7.11c.91,2.09,1.5,3.39,2,4.24.91,1.57,1.76,3.13,2.67,4.77l11.88,19.19h10.9V.65h-10.9Z"/></g></g></svg>