<svg xmlns="http://www.w3.org/2000/svg" width="484.923" height="398.438" viewBox="0 0 484.923 398.438">
  <g id="Logo" style="isolation: isolate">
    <circle id="Ellipse_1" data-name="Ellipse 1" cx="89.801" cy="89.801" r="89.801" transform="translate(305.322)" fill="#e30421"/>
    <path id="Pfad_1" data-name="Pfad 1" d="M143.026,221.438a38.31,38.31,0,0,0-6.631-10.638,32.363,32.363,0,0,0-10.085-7.6,28.743,28.743,0,0,0-12.848-2.9H71.6v98.09H94.257V266.752h19.894A30.173,30.173,0,0,0,127,263.989a27.676,27.676,0,0,0,9.809-7.46,35.779,35.779,0,0,0,8.7-23.072A30.215,30.215,0,0,0,143.026,221.438Zm-23.348,22.1A8.69,8.69,0,0,1,112.77,247H94.257v-26.8h17.684a9.752,9.752,0,0,1,3.868.829,10.011,10.011,0,0,1,3.454,2.487,15,15,0,0,1,2.487,4.145,18.42,18.42,0,0,1,.967,5.941C122.579,237.878,121.612,241.194,119.678,243.542Z" transform="translate(-71.462 6.932)" fill="#fff"/>
    <path id="Pfad_2" data-name="Pfad 2" d="M170.11,276.7a18.649,18.649,0,0,1-6.355-6.355,26.8,26.8,0,0,1-3.592-9.118,54.8,54.8,0,0,1-1.105-10.776V200.3H136.4v50.15a68.058,68.058,0,0,0,2.487,18.513,45.673,45.673,0,0,0,7.6,15.612,39.032,39.032,0,0,0,13.539,10.776c5.526,2.625,12.158,4.007,20.032,4.007,7.6,0,14.092-1.243,19.618-3.868a37.714,37.714,0,0,0,13.539-10.362,42.074,42.074,0,0,0,7.875-15.473,70.623,70.623,0,0,0,2.625-19.065v-50.15H200.78v50.15a45.615,45.615,0,0,1-1.105,10.638,32.3,32.3,0,0,1-3.592,9.256,19.04,19.04,0,0,1-6.493,6.355c-2.625,1.658-5.941,2.349-9.809,2.349a18.922,18.922,0,0,1-9.671-2.487" transform="translate(-46.738 6.932)" fill="#fff"/>
    <path id="Pfad_3" data-name="Pfad 3" d="M283.434,298.39H301.67V200.3H279.013v57.61L233.284,200.3H215.6v98.09h22.657V242.3Z" transform="translate(-16.519 6.932)" fill="#fff"/>
    <path id="Pfad_4" data-name="Pfad 4" d="M317.657,298.39V269.515l10.223-10.638L355.65,298.39h25.835L342.249,244.1,379,200.3h-25.42l-35.92,42.275V200.3H295v98.09Z" transform="translate(13.776 6.932)" fill="#fff"/>
    <path id="Pfad_5" data-name="Pfad 5" d="M443.278,200.3H360.8v19.894h29.98v78.2h22.657v-78.2h29.841Z" transform="translate(38.881 6.932)" fill="#fff"/>
    <path id="Pfad_6" data-name="Pfad 6" d="M295.178,108.3H212.7v19.894h29.98v78.2h22.657v-78.2h29.841Z" transform="translate(-17.626 -28.17)" fill="#fff"/>
    <path id="Pfad_7" data-name="Pfad 7" d="M131.874,169.993a26.586,26.586,0,0,0,6.631-5.112,28.129,28.129,0,0,0,5.112-6.77,31.3,31.3,0,0,0,3.178-8.013,36.9,36.9,0,0,0,1.105-8.842,31.223,31.223,0,0,0-2.487-12.019,35.752,35.752,0,0,0-6.77-10.638A32.945,32.945,0,0,0,128.42,111a28.158,28.158,0,0,0-12.71-2.9H71.5v98.09H94.3V174.552h14.783l18.789,31.637h25.559ZM121.926,151.2c-1.934,2.487-4.283,3.868-6.908,3.868H94.3v-26.8h20.032c2.625,0,4.974,1.243,7.184,3.592s3.316,5.664,3.316,9.671A15.481,15.481,0,0,1,121.926,151.2Z" transform="translate(-71.5 -28.247)" fill="#fff"/>
    <path id="Pfad_8" data-name="Pfad 8" d="M162.63,146.721a27.568,27.568,0,0,1,4.835-9.395,27.167,27.167,0,0,1,8.013-6.77,24.066,24.066,0,0,1,11.329-2.625,22.732,22.732,0,0,1,10.914,2.487,26.472,26.472,0,0,1,8.151,6.493,27.85,27.85,0,0,1,4.974,9.395,36.755,36.755,0,0,1,0,21.828,30.726,30.726,0,0,1-4.7,9.533,25.924,25.924,0,0,1-8.013,6.908,22.882,22.882,0,0,1-11.329,2.625,23.691,23.691,0,0,1-11.052-2.487,25.352,25.352,0,0,1-8.151-6.631,29.215,29.215,0,0,1-4.974-9.395,36.926,36.926,0,0,1-1.658-11.052,48.5,48.5,0,0,1,1.658-10.914m43.657,56.505a49.767,49.767,0,0,0,15.473-10.914,48.687,48.687,0,0,0,10.085-15.888,47.7,47.7,0,0,0,3.592-18.651,49.118,49.118,0,0,0-3.454-18.236,51.623,51.623,0,0,0-9.809-16.026,50.321,50.321,0,0,0-15.335-11.329,44.7,44.7,0,0,0-19.894-4.283,48.351,48.351,0,0,0-19.618,4.006,49.767,49.767,0,0,0-15.473,10.914,49.04,49.04,0,0,0-10.223,15.888,47.826,47.826,0,0,0-3.73,18.651,50.158,50.158,0,0,0,3.592,18.513A54.366,54.366,0,0,0,151.3,191.9a47.775,47.775,0,0,0,15.335,11.191,44.7,44.7,0,0,0,19.894,4.283,46.425,46.425,0,0,0,19.756-4.145" transform="translate(-46.165 -28.323)" fill="#fff"/>
    <path id="Pfad_9" data-name="Pfad 9" d="M77.741,355.088V336.437l11.6-11.881,23.21,30.532h6.631L92.938,321.1l24.868-26.8h-6.631L77.741,329.668V294.438H71.8v60.65Z" transform="translate(-71.386 42.797)" fill="#fff"/>
    <path id="Pfad_10" data-name="Pfad 10" d="M145.026,348.042a17.092,17.092,0,0,1-6.079-5.664,21.675,21.675,0,0,1-3.178-8.013,41.681,41.681,0,0,1-.967-9.395V294.3H129v30.67a51.757,51.757,0,0,0,1.243,11.329,29.853,29.853,0,0,0,4.283,9.809,21.314,21.314,0,0,0,7.875,6.908,25.118,25.118,0,0,0,12.158,2.625,25.635,25.635,0,0,0,11.881-2.487,20.672,20.672,0,0,0,7.875-6.631,28.164,28.164,0,0,0,4.421-9.671,46.366,46.366,0,0,0,1.382-11.743v-30.67h-5.941v30.67a40.927,40.927,0,0,1-.967,9.118,23.358,23.358,0,0,1-3.178,8.151,18.81,18.81,0,0,1-6.079,5.8,18.042,18.042,0,0,1-9.533,2.21,22.894,22.894,0,0,1-9.395-2.349" transform="translate(-49.561 42.797)" fill="#fff"/>
    <rect id="Rechteck_12" data-name="Rechteck 12" width="4.974" height="8.013" transform="translate(108.866 319.69)" fill="#fff"/>
    <rect id="Rechteck_13" data-name="Rechteck 13" width="4.974" height="8.013" transform="translate(96.156 319.69)" fill="#fff"/>
    <path id="Pfad_11" data-name="Pfad 11" d="M194.31,335.861a32.465,32.465,0,0,0,5.8,9.947,30.322,30.322,0,0,0,8.98,7.184,24.658,24.658,0,0,0,11.467,2.763,26.4,26.4,0,0,0,7.184-.967,30.082,30.082,0,0,0,6.908-2.763,26.592,26.592,0,0,0,5.941-4.421,18.3,18.3,0,0,0,4.145-6.079l-4.974-2.625a19.919,19.919,0,0,1-3.592,5.112,22.295,22.295,0,0,1-9.947,5.526,23.848,23.848,0,0,1-5.25.691,19.523,19.523,0,0,1-8.98-2.072,23.723,23.723,0,0,1-7.184-5.664,27.592,27.592,0,0,1-6.631-17.822,26.325,26.325,0,0,1,1.52-9.118,25.6,25.6,0,0,1,4.283-8.151,24.018,24.018,0,0,1,7.046-5.8,19.976,19.976,0,0,1,9.671-2.21,22.241,22.241,0,0,1,5.112.553,23.976,23.976,0,0,1,4.974,1.8,16.859,16.859,0,0,1,4.421,3.316,17.484,17.484,0,0,1,3.454,5.112l4.835-2.9a21.974,21.974,0,0,0-8.566-9.533A24.887,24.887,0,0,0,221.112,294a27.291,27.291,0,0,0-12.3,2.763,30.586,30.586,0,0,0-9.118,6.908,32.381,32.381,0,0,0-5.664,9.671,33.673,33.673,0,0,0-1.934,10.914,30.409,30.409,0,0,0,2.21,11.605" transform="translate(-25.486 42.683)" fill="#fff"/>
    <path id="Pfad_12" data-name="Pfad 12" d="M298.2,294.3v27.078H262.141V294.3H256.2v60.788h5.941V326.766H298.2v28.322h5.941V294.3Z" transform="translate(-1.028 42.797)" fill="#fff"/>
    <path id="Pfad_13" data-name="Pfad 13" d="M326.541,349.838v-23.21h29.7v-5.112h-29.7V299.688h34.124V294.3H320.6v60.788h40.894v-5.25Z" transform="translate(23.543 42.797)" fill="#fff"/>
    <path id="Pfad_14" data-name="Pfad 14" d="M422.791,355.088H427.9v-60.65h-5.941v50.426l-40.2-50.565H377.2v60.788h5.941v-49.6Z" transform="translate(45.139 42.797)" fill="#fff"/>
  </g>
</svg>
